<svg width="64" height="64" viewBox="0 0 64 64" fill="none" xmlns="http://www.w3.org/2000/svg">
<g clip-path="url(#clip0_581_3031)">
<path fill-rule="evenodd" clip-rule="evenodd" d="M13.1547 8.51719C13.439 7.99219 14.0953 7.40156 14.6203 7.21563C14.85 7.12813 15.6375 7.07344 16.6109 7.07344C18.1859 7.0625 18.2406 7.07344 18.4922 7.33594C18.8203 7.65313 18.8422 8.03594 18.5578 8.38594C18.3609 8.6375 18.2625 8.64844 16.6984 8.70313C15.1672 8.75781 15.0359 8.77969 14.8062 9.00938L14.5547 9.26094V15.0578V20.8656L14.8609 21.1281L15.1672 21.3906H18.0547C19.8047 21.3906 21.0625 21.4344 21.2484 21.5109C21.4125 21.5656 22.0797 22.1453 22.7359 22.7906L23.9062 23.9609L25.0875 22.7906C25.7328 22.1453 26.4 21.5656 26.564 21.5109C26.75 21.4344 28.0078 21.3906 29.7578 21.3906H32.6453L32.9515 21.1281L33.2578 20.8656L33.2906 15.2766C33.3234 9.17344 33.3125 9.04219 32.7109 8.8125C32.5359 8.74688 30.239 8.70313 26.75 8.70313C23.6328 8.70313 20.9969 8.67031 20.8984 8.6375C20.614 8.52813 20.4062 7.94844 20.5265 7.62031L20.5408 7.58295C20.5688 7.50901 20.5927 7.44578 20.6299 7.39168C20.8497 7.07223 21.5322 7.07114 26.2445 7.0636L26.914 7.0625H32.8203L33.3672 7.325C34.0125 7.63125 34.4281 8.04688 34.7015 8.64844C34.8765 9.03125 34.8984 9.49063 34.9312 12.1703L34.964 15.2437L35.5765 15.0359C39.7109 13.6141 44.5125 14.6969 47.6734 17.7703C50.189 20.2094 51.414 23.1078 51.3922 26.5859C51.3703 28.6422 50.9984 30.1297 50.014 32.0219C48.3515 35.2375 45.3437 37.5016 41.7344 38.2344C40.75 38.4422 40.3453 38.4641 38.9453 38.4203C37.775 38.3766 37.064 38.2891 36.4844 38.1359L36.3807 38.1081C35.9752 37.9993 35.6287 37.9062 35.5984 37.9062C35.5547 37.9062 35.5 38.3 35.4781 38.7812C35.4344 39.7875 35.2156 40.1266 34.625 40.1266C33.9256 40.1266 33.925 40.0938 33.8595 36.6248L33.8594 36.6156C33.8047 33.7063 33.7937 33.4438 33.575 33.0938C33.4547 32.8859 33.1922 32.6016 32.9844 32.4703L32.6234 32.2188H19.75H6.87654L6.5156 32.4703C6.31873 32.6016 6.04529 32.8531 5.92498 33.0172C5.69559 33.323 5.69529 33.3998 5.66261 41.6687L5.66248 41.7016C5.6406 49.9375 5.6406 50.0906 5.85935 50.5281C5.8753 50.5608 5.89042 50.5923 5.90498 50.6226L5.90524 50.6231C5.9889 50.7972 6.05399 50.9326 6.1512 51.0386C6.49184 51.4098 7.22698 51.4191 10.538 51.4608H10.5381L11.164 51.4688C14.6859 51.5125 15.7031 51.5563 15.9219 51.6766C16.075 51.7531 16.9937 52.6172 17.9781 53.5906L19.75 55.3406L21.5328 53.5797C22.5062 52.6172 23.425 51.7531 23.5781 51.6766C23.7859 51.5563 24.8469 51.5125 28.3031 51.4688C32.5797 51.4141 32.7656 51.4031 33.05 51.1844C33.214 51.0641 33.4547 50.8234 33.575 50.6594C33.7937 50.375 33.8047 50.1781 33.8594 46.3609C33.914 42.5766 33.925 42.3688 34.1219 42.2156C34.439 41.9859 34.9969 42.0187 35.2375 42.2922C35.4344 42.5109 35.4453 42.7406 35.4453 46.5359V50.5391L35.1609 51.1406C34.8328 51.8187 34.2203 52.4859 33.6297 52.7922C32.9406 53.1422 31.9453 53.2188 28.0078 53.2188H24.1906L22.3203 55.0672L22.2265 55.1606L22.2265 55.1606C20.9764 56.4059 20.3464 57.0335 19.7126 57.0373C19.0685 57.0412 18.4205 56.4009 17.1141 55.1098L17.114 55.1098L17.0156 55.0125L15.2109 53.2406L10.9453 53.1969L6.67966 53.1641L6.06716 52.8797C5.31248 52.5187 4.6781 51.9062 4.31716 51.1844L4.05466 50.6484L4.02185 42.2266C3.99998 36.0469 4.02185 33.6406 4.12029 33.2031C4.34998 32.1094 5.14841 31.1797 6.1656 30.7969C6.72341 30.5891 7.01873 30.5781 17.4094 30.5781C27.5375 30.5781 28.0844 30.5672 28.0078 30.3813C27.2859 28.5656 27.1765 24.825 27.8 23.2172C27.8547 23.0641 27.8 23.0312 27.4937 23.0312C27.1765 23.0312 26.9906 23.1734 25.9844 24.1906C24.7484 25.4375 24.4312 25.6562 23.9062 25.6562C23.3922 25.6562 23.1844 25.5141 21.8828 24.2234L20.6797 23.0422L17.6719 23.0094C15.1234 22.9766 14.6094 22.9437 14.3359 22.7906C13.8765 22.5391 13.4281 22.0797 13.1437 21.5547C12.914 21.1172 12.914 21.0516 12.914 15.0469V8.97656L13.1547 8.51719ZM45.0594 17.7703C44.1297 17.1578 42.6969 16.5453 41.6687 16.3156C40.6844 16.0969 38.9344 16.0094 38.0375 16.1406C37.239 16.25 36.3422 16.4906 35.5437 16.8078L34.975 17.0266L34.9312 19.0719C34.8875 21.3906 34.8 21.6641 33.9797 22.4078C33.389 22.9328 32.9734 23.0312 31.1469 23.0312H29.5937L29.4734 23.3266C28.839 24.9672 28.9047 28.0625 29.6047 29.9438L29.8344 30.5781H31.2781C33.05 30.5781 33.5203 30.7203 34.3406 31.4641C35.2265 32.2734 35.4125 32.8094 35.4781 34.6359L35.5219 36.1344L36.3203 36.3641C40.1375 37.5016 44.1844 36.4406 46.9078 33.5969C51.3703 28.9484 50.4734 21.3031 45.0594 17.7703ZM38.3765 19.8376C38.4203 19.6735 38.5953 19.4657 38.7593 19.3782C39.2734 19.0938 39.8422 19.1594 40.225 19.5422L40.564 19.8704L40.4984 21.8063C40.4547 22.8672 40.389 24.6719 40.3562 25.8094C40.2797 27.7782 40.2687 27.8985 40.0281 28.1391C39.7218 28.4454 39.1312 28.4782 38.7921 28.1938C38.5625 28.0079 38.5515 27.8985 38.4312 24.0704C38.3656 21.9047 38.3437 20.0016 38.3765 19.8376ZM39.1422 29.6704C39 29.6922 38.7484 29.8672 38.5625 30.0422C37.9391 30.6657 38.2234 31.6391 39.0984 31.9016C39.4484 32.0001 39.5797 31.9891 39.9188 31.836C40.3344 31.6391 40.6406 31.2016 40.6406 30.7969C40.6406 30.0969 39.8859 29.5282 39.1422 29.6704ZM16.5999 11.7109C16.414 11.3172 16.4359 11.1859 16.6984 10.8469L16.9171 10.5625H23.7968H30.6765L30.8953 10.8469C31.1906 11.2297 31.1796 11.4703 30.8624 11.8422L30.5999 12.1484L24.0484 12.1812C19.739 12.2031 17.3765 12.1703 17.114 12.1047C16.8624 12.0281 16.6765 11.8859 16.5999 11.7109ZM16.7422 14.1172C16.5891 14.2594 16.4688 14.5109 16.4688 14.6641C16.4688 14.8172 16.5891 15.0688 16.7422 15.2109L17.0047 15.4844H23.7969H30.5891L30.8516 15.2109C31.2016 14.8719 31.2016 14.4563 30.8516 14.1172L30.5891 13.8438H23.7969H17.0047L16.7422 14.1172ZM16.6984 18.4813C16.3375 18.0219 16.4359 17.5625 16.9609 17.2563C17.1141 17.1578 18.1641 17.1359 20.6906 17.1578C23.9828 17.1797 24.2234 17.1906 24.4422 17.3875C24.7375 17.6609 24.7484 18.2516 24.4531 18.5469C24.2453 18.7547 24.0922 18.7656 20.5812 18.7656H16.9172L16.6984 18.4813ZM18.35 35.8172C17.2343 36.2 16.5015 37.1516 16.7421 37.9063C16.7859 38.0266 16.9828 38.2125 17.1906 38.3109C17.5406 38.4859 17.5734 38.4859 17.825 38.2781L17.8519 38.2566C18.5358 37.7094 18.7702 37.5219 19.0364 37.4463C19.1752 37.4069 19.3226 37.398 19.5469 37.3843L19.5968 37.3813C20.8 37.3047 21.5 37.8078 21.5 38.7484C21.5 39.4703 21.2484 39.8969 20.3296 40.7172C19.2687 41.6688 18.9625 42.2484 18.8968 43.4297C18.8421 44.5234 18.9734 44.7422 19.6406 44.7422C20.2312 44.7422 20.5156 44.425 20.5156 43.7688C20.5156 42.85 20.6906 42.5219 21.7625 41.4719C22.9656 40.2797 23.2718 39.7219 23.3375 38.6172C23.3703 37.95 23.3375 37.775 23.064 37.25C22.7031 36.5391 22.0578 36.0141 21.2593 35.7734C20.4828 35.5438 19.0718 35.5656 18.35 35.8172ZM41.3078 41.7233C41.4828 40.9358 42.1281 40.2358 42.8828 40.028C43.3203 39.9186 44.9062 39.8858 50.8781 39.9077L58.3265 39.9296L58.8516 40.2577C59.2453 40.4983 59.475 40.7499 59.6937 41.1764L60.0109 41.7671L59.9781 46.8749L59.9453 51.9827L59.6172 52.5077C59.3875 52.8905 59.125 53.1202 58.7422 53.3171C58.2172 53.5905 58.1297 53.6014 55.7344 53.6343L53.2734 53.678L52.2344 54.6952C50.7031 56.1936 50.4078 56.1827 48.8437 54.5968L47.9141 53.6561H45.7594C43.0359 53.6561 42.6094 53.5686 41.9422 52.9014C41.5375 52.5077 41.4062 52.278 41.3078 51.8186C41.1437 51.0311 41.1437 42.4999 41.3078 41.7233ZM58.3594 46.7655C58.3594 42.0514 58.3594 41.9858 58.1297 41.778C57.9109 41.5811 57.6047 41.5702 50.7141 41.5483C46.5359 41.5374 43.4406 41.5702 43.2875 41.6249C43.1562 41.6796 42.9922 41.8546 42.9375 42.0186C42.8609 42.2046 42.8281 43.9983 42.85 46.9405C42.8828 51.2171 42.8937 51.5889 43.0797 51.7639C43.2547 51.9389 43.55 51.9608 45.9016 51.9936L48.5375 52.0264L49.5656 53.0218L50.5937 54.0171L51.6219 53.0218L52.65 52.0264L55.275 51.9936C57.6703 51.9608 57.9219 51.9389 58.1297 51.753C58.3594 51.5452 58.3594 51.4796 58.3594 46.7655ZM46.1203 46.2844C45.814 46.6673 45.8359 47.0391 46.164 47.3673C46.4265 47.6298 46.7875 47.7063 47.1484 47.5751C47.4109 47.4657 47.6515 46.9188 47.575 46.6016C47.4218 45.9782 46.514 45.7813 46.1203 46.2844ZM49.85 47.4218C49.5328 47.1265 49.5328 46.514 49.8281 46.2187C50.3093 45.7374 51.25 46.1202 51.25 46.8093C51.25 47.5202 50.375 47.9031 49.85 47.4218ZM53.5688 46.2516C53.0656 46.7875 53.4375 47.6406 54.1594 47.6406C54.8484 47.6406 55.2313 46.7 54.75 46.2188C54.4438 45.9125 53.8641 45.9344 53.5688 46.2516ZM18.7219 46.7C18.8422 46.4594 19.05 46.2188 19.2031 46.1422C19.5641 45.9563 19.6953 45.9672 20.1328 46.1641C21.2156 46.6781 20.8437 48.2969 19.6406 48.2969C18.8094 48.2969 18.3391 47.4766 18.7219 46.7Z" fill="#333333"/>
</g>
<defs>
<clipPath id="clip0_581_3031">
<rect width="56" height="56" fill="white" transform="translate(4 4)"/>
</clipPath>
</defs>
</svg>
