<svg width="64" height="64" viewBox="0 0 64 64" fill="none" xmlns="http://www.w3.org/2000/svg">
<path fill-rule="evenodd" clip-rule="evenodd" d="M30.641 5.14625C29.5536 5.43454 28.7402 5.91601 27.8946 6.77177C26.6165 8.06521 26.1034 9.29069 26.0884 11.0852C26.0744 12.7611 26.673 14.2164 27.8721 15.4215C28.5788 16.1319 29.8475 16.88 30.5794 17.0179L30.9312 17.0843L30.7942 17.542C30.7188 17.7939 30.5722 18.6428 30.4684 19.4288L30.2797 20.8577L29.7172 20.916C28.6152 21.0304 27.5602 21.7939 27.055 22.8426C26.6898 23.6008 26.6377 24.8616 26.9315 25.8311C27.2554 26.9 27.8212 27.7063 28.7851 28.4725L29.1963 28.7995L29.0599 29.9905C28.8298 31.9982 29.0442 33.3709 29.848 35.0375C31.0436 37.5158 33.5104 39.3624 36.074 39.6983C37.1436 39.8384 37.0762 39.7773 37.0762 40.606C37.0762 41.5284 36.936 41.5662 36.2712 40.8232C35.7186 40.2053 35.2828 40.033 34.4292 40.0951C33.7193 40.1467 33.1615 40.5109 32.8129 41.1503C32.6397 41.4681 32.5041 41.5536 31.8506 41.7576C29.8063 42.3953 27.9258 44.1758 27.1109 46.2448C26.9662 46.6122 26.3912 48.7974 25.8329 51.1008C24.9649 54.6826 24.8237 55.3887 24.8568 55.9781C24.9241 57.1761 25.6167 58.1677 26.7401 58.6743L27.3492 58.9491L42.322 58.9215L57.2948 58.8939L57.8112 58.5731C58.5307 58.126 58.9458 57.4268 58.9963 56.5766C59.0289 56.0286 58.8575 55.1924 57.9172 51.3129C56.7119 46.3394 56.4603 45.6094 55.5186 44.3542C54.6879 43.2469 53.1752 42.1816 51.7926 41.7302C51.3757 41.5942 51.2209 41.4765 51.0541 41.1692C50.9381 40.9553 50.6607 40.6333 50.4377 40.4535C50.0634 40.1519 49.9697 40.1269 49.2163 40.1269C48.4783 40.1269 48.362 40.1562 47.9987 40.4348C47.7779 40.6041 47.5205 40.8781 47.4267 41.0437C47.3045 41.2596 47.1743 41.345 46.9662 41.3456L46.6761 41.3462V37.7005V34.0549L47.7047 34.0116C48.535 33.9767 48.8502 33.914 49.3402 33.6869C50.1825 33.2963 51.0335 32.4564 51.4514 31.6032C51.7704 30.952 51.7926 30.8344 51.7926 29.7913C51.7926 28.7542 51.7686 28.625 51.452 27.9532C51.2331 27.4888 50.9034 27.0264 50.529 26.659C50.0747 26.2133 49.9464 26.0163 49.9464 25.7647C49.9464 25.3739 49.9731 25.3707 50.4118 25.707C50.8327 26.0296 51.1984 26.0439 51.5673 25.7523C51.7678 25.5939 51.8453 25.4345 51.8453 25.1809C51.8453 24.7542 51.6906 24.568 50.7376 23.8484L49.9992 23.2907L49.9439 19.2505C49.8887 15.214 49.8884 15.2093 49.6048 14.3619C49.2456 13.289 48.5277 12.1323 48.1141 11.9601C47.7394 11.8041 47.3487 11.9843 47.1011 12.4278C46.9475 12.7028 46.9615 12.7541 47.432 13.6444C48.2517 15.1954 48.2585 15.2427 48.2585 19.3116V22.8972H47.482H46.7055L46.6521 21.7044C46.5902 20.3229 46.2924 19.3063 45.6765 18.3739C44.9137 17.2194 43.7354 16.3027 42.4639 15.8751C41.7973 15.6508 41.5675 15.6396 36.4959 15.5833C31.3007 15.5257 31.2121 15.5211 30.6144 15.2802C29.5416 14.8479 28.5985 13.9654 28.1413 12.9659C27.347 11.2293 27.6958 9.30373 29.0519 7.9401C29.601 7.3879 30.4322 6.89625 31.0748 6.74367C31.3417 6.68027 31.3522 6.69649 31.4107 7.26608C31.5471 8.59472 32.5208 9.92432 33.8055 10.5362L34.4916 10.863L39.0805 10.9233C42.9762 10.9744 43.7492 11.0104 44.197 11.1607C44.9137 11.4014 45.1636 11.3855 45.4677 11.0798C45.9893 10.5556 45.664 9.87724 44.745 9.57294C44.2746 9.41718 43.5469 9.38304 39.608 9.33204C35.2148 9.27511 34.9988 9.26291 34.5443 9.04736C33.6356 8.61624 33.1336 7.86206 33.0011 6.72841C32.9133 5.97698 32.6167 5.52222 32.0156 5.21697C31.4745 4.94225 31.4207 4.93949 30.641 5.14625ZM8.27881 17.2356C7.06067 17.5646 6.01354 18.4518 5.42499 19.6534C4.78274 20.9645 4.87642 22.7488 5.6518 23.9736C6.01407 24.5457 6.83048 25.343 7.30869 25.5915C7.49109 25.6863 7.66315 25.8704 7.69111 26.0005C7.71906 26.1307 8.10222 29.1235 8.54265 32.6514C9.2617 38.4122 9.36603 39.0901 9.56658 39.3047C10.0727 39.8463 10.9136 39.4411 10.9136 38.6557C10.9136 38.4372 10.5813 35.5923 10.1752 32.3338C9.76902 29.0752 9.43672 26.3584 9.43672 26.2966C9.43672 25.9498 9.71965 26.3503 10.462 27.748L11.2928 29.312L12.6907 40.604C13.4595 46.8146 14.1154 52.0512 14.148 52.2406L14.2075 52.5852H13.4656C12.7405 52.5852 12.7225 52.5786 12.6667 52.2936C12.6353 52.1333 12.3456 49.8311 12.0228 47.1778C11.6956 44.488 11.3684 42.2023 11.2833 42.0116C11.0321 41.449 10.2441 41.4043 9.89931 41.9331C9.73885 42.1793 9.73906 42.3002 9.90289 43.5991L10.0795 44.9996L9.78442 45.2129C8.78656 45.9345 8.1268 46.7907 7.73278 47.8755C7.53529 48.419 7.49847 48.7892 7.45786 50.639L7.41102 52.7747L6.99189 52.9647C6.43763 53.2159 5.69959 54.0552 5.49039 54.6723C5.39798 54.9448 5.32245 55.4855 5.32245 55.874C5.32245 56.4497 5.38216 56.7005 5.64505 57.2293C6.01417 57.9718 6.39712 58.3351 7.22134 58.7253L7.80156 58.9999H13.8147C20.6073 58.9999 20.4107 59.0218 21.3344 58.1659C22.0733 57.4814 22.3553 56.8348 22.3577 55.8191C22.3601 54.8208 22.106 54.1857 21.4341 53.5104C20.6595 52.7319 20.3187 52.6429 17.9633 52.6039L15.8878 52.5695L15.8272 52.1798C15.794 51.9654 15.6248 50.621 15.4514 49.1923C15.2779 47.7636 15.1128 46.4633 15.0846 46.303C15.0343 46.0183 15.0451 46.0115 15.5388 46.0115C16.3317 46.0115 17.1008 46.2909 17.6125 46.765C18.1961 47.3056 18.4042 47.7584 18.5273 48.7553C18.7569 50.6139 19.7677 51.7035 21.3698 51.8192C22.6138 51.9089 23.6489 51.359 24.2857 50.2702L24.5751 49.7755L24.608 47.166L24.641 44.5565L25.323 44.4925C26.1536 44.4146 26.7824 44.1475 27.3512 43.6309C27.8537 43.1747 28.3201 42.298 28.3201 41.8101C28.3201 41.4851 28.5413 41.1341 28.746 41.1341C28.7978 41.1341 29.0109 40.9836 29.2194 40.7996C30.4531 39.7108 30.3032 37.843 28.9111 36.9586L28.4463 36.6633L28.3977 34.419C28.3667 32.9916 28.2998 32.033 28.2138 31.7852C27.9945 31.153 27.3661 30.4204 26.7377 30.0647L26.1575 29.7361H23.8367C21.6466 29.7361 21.4913 29.7492 21.0816 29.9695C20.4137 30.3287 20.0576 30.6739 19.7185 31.2912C19.446 31.7873 19.4013 31.9931 19.3541 32.9699L19.3004 34.0832L16.4717 28.7828L13.6429 23.4824L13.808 22.8913C14.7626 19.4718 11.6788 16.3173 8.27881 17.2356ZM32.5314 17.5654C32.3779 17.971 32.2445 18.6523 32.0844 19.8489L31.946 20.8827H32.9248C34.5622 20.8827 35.6421 21.4755 36.296 22.7334C36.464 23.0565 36.6512 23.3209 36.7121 23.3211C36.773 23.3212 36.8818 23.1572 36.954 22.9566C37.1446 22.4268 37.9722 21.5513 38.5944 21.2214C39.1254 20.9399 39.1674 20.9352 41.4586 20.9021C43.7745 20.8687 43.9462 20.8867 44.811 21.2537C44.9838 21.3271 44.996 21.2938 44.9327 20.9234C44.7445 19.8206 43.7943 18.4365 42.8408 17.8759C41.8678 17.304 41.609 17.2777 36.9489 17.2777H32.6401L32.5314 17.5654ZM8.32903 19.0116C7.73499 19.2902 7.06975 19.9723 6.8289 20.5498C6.40999 21.5538 6.75843 22.987 7.60281 23.7342C9.44199 25.3612 12.2771 24.0831 12.2817 21.6249C12.2856 19.5312 10.1838 18.1416 8.32903 19.0116ZM29.2614 22.8203C28.6625 23.2258 28.4256 23.6825 28.4256 24.4315C28.4256 25.317 28.6695 25.9741 29.2315 26.6023C29.9197 27.3714 30.6932 27.7222 31.696 27.7193C33.2956 27.7148 34.512 26.7318 34.9257 25.1088C35.1185 24.352 35.0574 23.8549 34.7049 23.3114C34.2742 22.6476 33.9901 22.5791 31.6693 22.5791C29.7096 22.5791 29.6013 22.59 29.2614 22.8203ZM39.185 22.8177C38.5407 23.2585 38.3948 23.5633 38.3948 24.4693C38.3948 25.1465 38.4445 25.3847 38.6914 25.8898C39.0228 26.5683 39.6342 27.1599 40.3465 27.4916C41.0804 27.8333 42.333 27.8033 43.0563 27.4266C44.2443 26.8079 44.9291 25.7132 44.9331 24.4268C44.9351 23.7667 44.9 23.6299 44.6399 23.2869C44.1302 22.6146 43.9796 22.5791 41.6333 22.5791C39.6296 22.5791 39.5178 22.5901 39.185 22.8177ZM46.6761 25.0509V25.508L47.467 25.5015L48.258 25.4949L48.2582 25.0443L48.2585 24.5937H47.4673H46.6761V25.0509ZM11.9388 25.3804C11.6614 25.5735 11.4109 25.755 11.3822 25.7839C11.3034 25.8631 18.5923 39.4704 18.7953 39.6232C18.9298 39.7244 20.0294 39.7558 23.4397 39.7558H27.9078L28.1667 39.4955C28.483 39.1776 28.4941 38.9176 28.207 38.5508L27.9884 38.2714H23.9404H19.8924L19.6333 38.0328C19.4909 37.9015 17.8447 34.9195 15.9752 31.406C14.1057 27.8926 12.5462 25.0204 12.5097 25.0236C12.4732 25.0268 12.2163 25.1874 11.9388 25.3804ZM36.4029 26.2978C35.9399 27.0164 35.942 27.2496 36.4123 27.3721C37.3327 27.6118 37.2759 28.8567 36.3377 29.0061C36.0543 29.0512 35.8267 28.9897 35.3585 28.7416L34.7485 28.4185L34.0779 28.7889C33.317 29.2093 32.121 29.4976 31.3353 29.4501L30.8039 29.418L30.7162 30.0542C30.3951 32.3848 31.0561 34.5109 32.5927 36.0892C33.3639 36.8815 34.2199 37.4178 35.3366 37.8084C36.1485 38.0924 36.271 38.1047 38.6756 38.1439C41.1499 38.1843 41.1738 38.1869 41.4096 38.4392C41.7461 38.7992 41.7252 39.2981 41.3604 39.6135C41.0971 39.8411 40.9772 39.8618 39.9186 39.8618H38.7641V41.1148C38.7641 43.1641 39.2024 44.0948 40.4664 44.7297C42.1569 45.5786 44.1184 44.811 44.7885 43.0384C44.9741 42.5477 44.9882 42.1606 44.9882 37.5879C44.9882 34.8645 45.0314 32.5516 45.0848 32.4102C45.138 32.2697 45.3315 32.0923 45.5148 32.0161C45.808 31.894 45.9138 31.9041 46.394 32.1C47.2212 32.4374 47.642 32.4808 48.2789 32.2947C49.4441 31.9543 50.1592 30.9966 50.1551 29.7821C50.1521 28.9127 49.9115 28.3724 49.277 27.811C48.4513 27.0806 47.4421 26.9585 46.332 27.4549C46.0558 27.5785 45.7807 27.6491 45.7208 27.6118C45.6608 27.5746 45.4066 27.7343 45.1558 27.9666C44.5074 28.5673 43.9708 28.9028 43.2719 29.1445C41.489 29.761 39.7081 29.3745 38.2747 28.0599C37.6566 27.493 37.3605 27.0599 37.0267 26.2343L36.8019 25.6785L36.4029 26.2978ZM47.5208 28.4736C46.774 28.7991 46.2508 29.5632 46.2195 30.3741C46.1919 31.0923 46.6566 31.4605 47.3204 31.2461C47.596 31.1571 47.7269 30.9615 47.9026 30.3766C47.9777 30.1267 48.0903 30.0357 48.4566 29.929C48.995 29.7724 49.2 29.543 49.2046 29.0918C49.2118 28.397 48.3893 28.0951 47.5208 28.4736ZM34.3517 30.9887C33.582 31.8122 34.8022 32.9717 36.4356 32.9689C37.4767 32.9671 38.6586 32.1997 38.6586 31.5256C38.6586 31.1683 38.2138 30.7433 37.8399 30.7433C37.6745 30.7433 37.3783 30.8626 37.1816 31.0084C36.9382 31.189 36.6872 31.2735 36.3945 31.2735C36.1098 31.2735 35.8335 31.1839 35.5766 31.0084C35.0874 30.6743 34.6521 30.6673 34.3517 30.9887ZM21.522 31.7063C21.3143 31.8896 21.1045 32.2039 21.0442 32.422C20.9851 32.6359 20.9365 33.6579 20.9362 34.6929L20.9356 36.5749H21.3575H21.7795V34.7146C21.7795 32.8808 21.7832 32.8506 22.0385 32.5941C22.3213 32.3097 22.5804 32.2703 22.9761 32.4515C23.4012 32.6461 23.4674 32.9671 23.4674 34.8304V36.5749H23.8367H24.2059V34.8304C24.2059 32.9671 24.2721 32.6461 24.6972 32.4515C25.0929 32.2703 25.352 32.3097 25.6348 32.5941C25.8901 32.8506 25.8938 32.8808 25.8938 34.7146V36.5749H26.3158H26.7377V34.61C26.7377 32.4309 26.6768 32.1446 26.111 31.6661L25.7722 31.3795H23.8322H21.8924L21.522 31.7063ZM13.4982 33.6591C13.5686 34.0733 14.8169 44.0535 14.8169 44.2018C14.8169 44.264 15.0186 44.3159 15.2653 44.3171C17.0986 44.3258 18.541 45.0074 19.4101 46.2758C19.8368 46.8985 20.1971 47.9483 20.1971 48.569C20.1971 49.5073 20.7393 50.1466 21.5353 50.1466C22.0972 50.1466 22.5229 49.9419 22.7925 49.5423C22.9713 49.277 22.9963 48.9949 23.0261 46.9022L23.0597 44.5591L22.3456 44.4921C21.435 44.4066 20.6482 44.0241 20.1033 43.4019C19.6916 42.9319 19.3532 42.1686 19.3532 41.7102C19.3532 41.5231 19.2734 41.461 18.9576 41.4026C18.3841 41.2965 17.7547 40.9911 17.4716 40.6813C17.336 40.5331 16.3743 38.8209 15.3347 36.8765C14.2949 34.932 13.4685 33.4842 13.4982 33.6591ZM21.0415 41.6378C21.0421 41.9631 21.4259 42.4706 21.8094 42.6535C22.3419 42.9075 25.3237 42.9112 25.8536 42.6585C26.2362 42.4759 26.5618 42.0849 26.659 41.6908L26.718 41.4522H23.8795C21.2464 41.4522 21.0411 41.4657 21.0415 41.6378ZM34.3969 41.8022C34.2245 41.9289 34.2126 42.1274 34.2518 44.2144C34.2894 46.2184 34.3228 46.575 34.5328 47.2161C34.7309 47.821 34.7504 47.9939 34.6486 48.2408C34.406 48.8297 33.5377 48.8918 33.1977 48.3446C32.8403 47.7694 32.6204 46.5775 32.568 44.9311L32.515 43.2676L31.9848 43.4777C30.6457 44.0083 29.5063 45.0992 28.8565 46.4732C28.5353 47.1523 28.2407 48.1972 27.4774 51.3659C26.9436 53.5819 26.5082 55.5703 26.51 55.7847C26.5144 56.3033 26.7774 56.7891 27.1913 57.0427C27.5219 57.2454 27.8351 57.2497 42.2006 57.2501L56.8722 57.2505L57.1122 56.9938C57.2648 56.8306 57.3509 56.6086 57.3491 56.3841C57.3474 56.19 56.8661 54.0511 56.2796 51.631C55.0111 46.3972 54.8826 46.0644 53.6634 44.855C52.9232 44.1206 52.1683 43.6047 51.5681 43.4228C51.3476 43.3559 51.3427 43.3829 51.2899 44.9746C51.2491 46.2035 51.1805 46.7864 51.0058 47.389C50.082 50.5754 47.5995 53.0551 44.4036 53.9841C43.6883 54.192 43.3219 54.2281 41.9289 54.2281C40.5446 54.2281 40.1674 54.1913 39.4707 53.9886C38.2962 53.6469 37.2069 53.0985 36.224 52.3541C35.2241 51.5968 34.9672 51.1899 35.1919 50.7187C35.3615 50.3631 35.8284 50.1044 36.1281 50.2C36.243 50.2367 36.6102 50.5021 36.944 50.7898C38.3105 51.9678 40.0411 52.5941 41.9289 52.5941C44.1276 52.5941 45.7816 51.8997 47.3699 50.3098C48.1605 49.5185 48.4119 49.1816 48.8118 48.3772C49.506 46.981 49.6657 46.1445 49.675 43.8565C49.6822 42.1033 49.6679 41.9556 49.4779 41.8155C49.2243 41.6282 49.1919 41.6282 48.938 41.8146C48.7503 41.9524 48.7282 42.1493 48.6723 44.1738C48.6164 46.1986 48.5889 46.4421 48.3428 47.0974C47.5967 49.0842 46.1639 50.5258 44.1698 51.2967C43.5221 51.547 43.3219 51.5716 41.9289 51.5716C40.5358 51.5716 40.3357 51.547 39.688 51.2967C37.6943 50.526 36.2637 49.0868 35.514 47.0974C35.2665 46.4407 35.2397 46.203 35.1845 44.1737C35.1295 42.1484 35.1075 41.9523 34.9198 41.8145C34.6684 41.6301 34.6323 41.6293 34.3969 41.8022ZM36.7877 44.3945C36.8761 46.4394 37.2991 47.5191 38.4271 48.5797C39.4412 49.533 40.5682 49.9729 41.9861 49.9686C43.3272 49.9647 44.4307 49.5197 45.4307 48.5797C46.5704 47.5081 46.9856 46.4613 47.0695 44.4475L47.128 43.0427H46.846C46.6713 43.0427 46.5406 43.1132 46.5024 43.2282C45.7695 45.4348 44.0341 46.7537 41.8634 46.7537C39.7246 46.7537 37.9774 45.4184 37.2499 43.2282C37.216 43.1262 37.085 43.0427 36.9588 43.0427C36.7321 43.0427 36.73 43.0591 36.7877 44.3945ZM9.92093 47.3337C9.25516 48.2111 9.17604 48.546 9.13827 50.6502L9.10346 52.5852H10.0731H11.0427L10.9832 52.2406C10.9503 52.051 10.7955 50.8225 10.6388 49.5104C10.4822 48.1983 10.3211 47.0868 10.2808 47.0404C10.2406 46.9939 10.0786 47.1259 9.92093 47.3337ZM7.74881 54.4674C7.2474 54.7192 6.86266 55.485 6.96415 56.0291C7.05382 56.5092 7.46904 57.0204 7.92509 57.2119C8.20138 57.3279 9.38144 57.3565 13.8905 57.3563C19.0313 57.3562 19.5427 57.3404 19.8785 57.1707C20.9567 56.6264 21.0026 55.1316 19.9607 54.4932C19.6287 54.2897 19.4186 54.2824 13.8675 54.2822C8.60458 54.282 8.08681 54.2977 7.74881 54.4674Z" fill="#333333"/>
</svg>
