<svg width="64" height="64" viewBox="0 0 64 64" fill="none" xmlns="http://www.w3.org/2000/svg">
<path fill-rule="evenodd" clip-rule="evenodd" d="M16.1562 12.3174C16.1664 11.3728 16.2477 11.1494 16.6742 10.9971C17.0094 10.865 17.4258 11.0275 17.568 11.3424C17.7102 11.6674 17.7102 13.0283 17.568 13.3533C17.3953 13.7291 16.9586 13.8713 16.5828 13.6783C16.1867 13.4752 16.1562 13.3635 16.1562 12.3174ZM11.982 14.6736C11.1187 13.8204 11.0578 13.3939 11.7383 13.0283C11.85 12.9673 11.982 12.9064 12.0226 12.9064C12.4593 12.8962 13.7187 14.1658 13.7187 14.6126C13.7187 15.0493 13.414 15.3743 13.0179 15.3743C12.7539 15.3743 12.5609 15.2525 11.982 14.6736ZM21.3867 13.0994C21.2242 13.2009 20.8687 13.5158 20.6047 13.8002C20.0461 14.3892 19.9547 14.8666 20.3203 15.1916C20.7164 15.5572 21.082 15.4353 21.8031 14.7244C22.1687 14.3689 22.4836 13.9728 22.5242 13.8408C22.5953 13.5361 22.4023 13.1603 22.0773 13.0181C21.7625 12.8759 21.7422 12.8759 21.3867 13.0994ZM13.0687 16.6743C13.6375 15.5165 15.0187 14.511 16.2883 14.3282C17.6594 14.1352 19.1726 14.6735 20.0562 15.6587C20.8789 16.5727 20.9805 17.1415 20.3812 17.5376C19.9953 17.7813 19.6601 17.6493 19.264 17.0907C18.6344 16.2274 17.893 15.8313 16.8875 15.8313C14.5211 15.8415 13.2617 18.6548 14.8664 20.3915C15.3945 20.9704 15.9328 21.2446 16.664 21.3055C17.5781 21.3868 18.1976 21.1329 18.9797 20.3509C19.7008 19.6501 20.0461 19.5384 20.4219 19.9141C20.7469 20.2391 20.6859 20.7165 20.2594 21.2649C19.5078 22.2196 18.1773 22.8595 16.918 22.8595C13.7695 22.8595 11.6875 19.5079 13.0687 16.6743ZM40.2469 16.4306C39.4648 16.583 35.3211 21.9556 33.6656 24.9619C33.5031 25.2564 33.3406 25.5001 33.3102 25.5001C33.2797 25.5001 32.7414 24.6572 32.1117 23.6212C31.482 22.5955 30.8523 21.6103 30.7102 21.4376C30.3242 20.9705 29.725 20.7064 29.0648 20.7064C28.3844 20.6962 27.8969 20.8892 27.4602 21.3361C27.2875 21.5189 23.0523 28.4048 18.0656 36.6314L8.99609 51.6017H7.70625C6.43671 51.6017 6.4164 51.6017 6.21328 51.8658C5.84765 52.333 5.98984 52.8103 6.54843 53.0236C6.95468 53.1759 50.332 53.1658 50.7789 53.0134C51.3172 52.8205 51.4695 52.2314 51.0938 51.8251C50.9109 51.6322 50.7789 51.6017 49.9867 51.6017H49.0828L48.057 49.9259C47.4883 49.0017 47.0312 48.1791 47.0312 48.0978C47.0312 48.0166 47.1937 47.7626 47.3969 47.5392C47.9047 46.9806 48.6461 46.7572 49.3977 46.94C49.8344 47.0416 50.0273 47.1634 50.5352 47.6916C51.3477 48.5244 51.4594 48.5853 52.3023 48.4939C52.9117 48.433 53.0539 48.4533 53.3992 48.6462C53.6125 48.7681 53.9172 49.0728 54.0797 49.3267C54.4859 49.9666 54.6891 50.0783 55.4203 50.0783C55.9891 50.0783 56.0805 50.1087 56.2633 50.3423C56.6289 50.8095 56.4867 51.2869 55.9281 51.5001C55.7758 51.5509 55.2273 51.6017 54.7094 51.6017C53.6836 51.6017 53.5109 51.683 53.3789 52.2212C53.3281 52.4244 53.3789 52.5564 53.5617 52.7798C53.8055 53.0541 53.8766 53.0744 54.6789 53.1048C56.3445 53.1759 57.2383 52.79 57.7359 51.7947C58.1625 50.9314 58.0508 50.058 57.4211 49.3572C56.9437 48.8291 56.3953 48.5548 55.8266 48.5548C55.4203 48.5548 55.3492 48.5142 55.1664 48.2095C54.6992 47.458 53.643 46.9298 52.5867 46.9298C52.3164 46.9255 52.1621 46.923 52.0243 46.8742C51.841 46.8093 51.6867 46.6624 51.3273 46.3205L50.6875 45.7212V43.6798V41.6486H53.3586C55.8164 41.6486 56.0398 41.6283 56.3445 41.4455C56.7508 41.2017 56.9031 40.9072 56.9031 40.44C56.893 39.9119 56.1516 37.8298 55.4508 36.3775L55.3165 36.0922C55.0537 35.5342 54.8516 35.1051 54.8516 35.0877C54.8516 35.0673 55.1258 35.047 55.4711 35.047C56.0398 35.047 56.1211 35.0166 56.4359 34.7017C56.9945 34.1431 56.9437 33.8384 55.8773 31.7158C55.3695 30.7306 54.7398 29.5322 54.4555 29.0548L53.9477 28.1916L54.5469 28.1306C55.207 28.0697 55.3898 27.958 55.6336 27.5009C55.9383 26.9119 55.7352 26.465 53.8664 23.6009C52.7695 21.8947 51.7031 20.4728 50.4844 19.0611C49.2047 17.5783 49.1437 17.5275 48.5344 17.5275C48.0266 17.5275 48.0164 17.5377 47.3055 18.2892C46.9195 18.7056 46.2289 19.4978 45.7922 20.0462C45.3453 20.5845 44.9492 21.0111 44.8984 20.9806C44.8477 20.9502 44.4312 20.4322 43.9742 19.833C42.9078 18.4416 41.3945 16.7252 41.1102 16.583C40.7953 16.4306 40.5211 16.3798 40.2469 16.4306ZM41.4656 19.1728C42.5727 20.4627 43.4766 21.6408 44.3602 22.9611C45.1016 24.0681 46.2188 25.8455 46.2188 25.9369C46.2188 25.9673 45.9141 26.008 45.5484 26.0283C44.9391 26.0689 44.8375 26.0994 44.5836 26.3939C44.0961 26.9322 44.1672 27.2775 45.0609 28.7502C45.4773 29.4509 46.1883 30.7306 46.625 31.6041L47.4375 33.1986L46.6148 33.2392C45.8328 33.2697 45.782 33.29 45.4977 33.6048C45.0609 34.0923 45.1016 34.4884 45.7008 35.5447C46.2797 36.5501 46.8891 37.9009 47.3258 39.1603C47.4984 39.6478 47.6406 40.0541 47.6406 40.0845C47.6406 40.1048 46.3914 40.1251 44.8781 40.1251H42.1055L38.957 34.9251L38.9063 34.8414L38.9057 34.8403C37.2016 32.0235 35.7676 29.6531 35.7273 29.5627C35.6664 29.4408 35.7984 29.1361 36.225 28.4455C36.8445 27.4501 36.9359 27.0642 36.682 26.5767C36.4891 26.2314 35.9812 26.008 35.3516 26.008H34.8234L35.1078 25.5205C35.768 24.383 37.0781 22.4127 37.9211 21.2853C38.9773 19.8837 40.4094 18.1877 40.5312 18.1877C40.582 18.1877 41.0086 18.6345 41.4656 19.1728ZM49.418 20.1377C50.7687 21.7322 52.7289 24.4744 53.6836 26.1298L53.9578 26.6173H53.5922C52.8 26.6173 52.2211 27.0541 52.15 27.7041C52.0992 28.0494 52.1906 28.2423 52.9219 29.4611C53.6531 30.69 55.0547 33.3103 55.0547 33.4627C55.0547 33.4931 54.8008 33.5236 54.4961 33.5236C53.8156 33.5236 53.3891 33.7267 53.1758 34.133C52.9219 34.6205 52.993 34.915 53.6227 36.1033C54.1812 37.1494 55.0445 39.1806 55.207 39.8509L55.2781 40.1251L52.2617 40.1048L49.2352 40.0744L48.8594 38.9572C48.3617 37.4845 48.1586 36.9869 47.5391 35.7681L47.0312 34.7423H47.7117C48.9 34.7423 49.3875 34.2142 49.1133 33.2494C48.9711 32.7619 47.4172 29.7353 46.6453 28.4455L46.1375 27.5822L46.757 27.5314C47.4578 27.4705 47.7828 27.3283 47.9555 27.0134C48.25 26.4447 48.0367 25.8962 46.6656 23.7127C46.3102 23.1439 45.9953 22.6056 45.9547 22.5244C45.9141 22.4228 46.1172 22.0877 46.4828 21.6205C47.2648 20.6353 48.4937 19.2033 48.5547 19.2033C48.5852 19.2033 48.9711 19.6298 49.418 20.1377ZM28.2422 33.6251V44.3806L25.2055 44.4111C22.3109 44.4416 22.1484 44.4517 21.8844 44.6548C21.732 44.7666 21.5086 44.99 21.3969 45.1423C21.1937 45.4064 21.1836 45.5892 21.1328 48.4837L21.082 51.5509L15.9633 51.5814C11.1187 51.6017 10.8547 51.5916 10.9258 51.4291C10.9969 51.2361 28.1711 22.8595 28.2219 22.8595C28.232 22.8595 28.2422 27.7041 28.2422 33.6251ZM38.632 37.3119C43.3648 45.122 47.2344 51.5306 47.2344 51.5509C47.2344 51.5814 43.3141 51.5916 38.5305 51.5814L29.8164 51.5509L29.7859 37.1798C29.7656 25.1142 29.7859 22.8392 29.8977 22.9611C29.9789 23.0423 33.9094 29.5017 38.632 37.3119ZM34.8742 27.6837C34.8133 27.8564 34.6203 27.8361 34.5594 27.6533C34.5391 27.5822 34.6102 27.5314 34.732 27.5314C34.8742 27.5314 34.925 27.5822 34.8742 27.6837ZM46.4219 43.9541C46.4117 45.8228 46.3914 46.3103 46.2695 46.4627C46.1883 46.5744 46.0969 46.6455 46.0766 46.615C46.0156 46.5642 43.3344 42.1462 43.1719 41.8517C43.0602 41.6486 43.0805 41.6486 44.7461 41.6486H46.4219V43.9541ZM49.1641 43.4767C49.1641 44.9436 49.1641 45.2334 49.0486 45.2907C49.0202 45.3048 48.9848 45.3048 48.9406 45.3048C48.8086 45.3048 48.5344 45.3353 48.3312 45.3658L47.9453 45.4369V43.5376V41.6486H48.5547H49.1641V43.4767ZM27.125 45.9447C27.125 45.9548 26.1195 46.9705 24.8906 48.1994L22.6562 50.4337V48.1689V45.9142H24.8906C26.1195 45.9142 27.125 45.9244 27.125 45.9447ZM28.2422 49.3166V51.6017H26.0078C24.7789 51.6017 23.7734 51.5712 23.7734 51.5306C23.7734 51.4595 28.1508 47.0314 28.2117 47.0314C28.232 47.0314 28.2422 48.0572 28.2422 49.3166ZM9.46329 19.0407C9.10782 18.5938 9.23985 18.1063 9.76798 17.8829C9.90001 17.8321 10.3875 17.7915 10.8344 17.8118C11.8094 17.8321 12.0938 18.0048 12.0938 18.5634C12.0938 19.1727 11.8399 19.3048 10.682 19.3048C9.70704 19.3048 9.66642 19.2946 9.46329 19.0407ZM22.25 17.8524C21.732 18.0454 21.5594 18.7157 21.9453 19.1016C22.118 19.2743 22.2805 19.3048 23.1539 19.3048C24.1289 19.3048 24.1695 19.2946 24.3727 19.0407C24.4945 18.8884 24.5859 18.7055 24.5859 18.6345C24.5859 18.3399 24.332 17.9845 24.0477 17.8829C23.7328 17.7813 22.5141 17.7509 22.25 17.8524ZM11.5148 23.9563C11.0883 23.5602 11.1898 23.2149 11.9719 22.4328C12.7437 21.6711 13.0586 21.5696 13.4851 21.9656C13.9117 22.3617 13.8101 22.7172 13.0383 23.4891C12.2766 24.261 11.9414 24.3625 11.5148 23.9563ZM20.3406 21.9453C20.1984 22.0774 20.1172 22.2805 20.1172 22.4836C20.1172 22.7578 20.2391 22.9305 20.8078 23.4992C21.6 24.2914 21.9656 24.3828 22.3414 23.9156C22.707 23.4586 22.6258 23.2149 21.8539 22.443C21.082 21.6711 20.757 21.5594 20.3406 21.9453ZM16.1562 24.7688C16.1562 23.9462 16.1766 23.8446 16.4102 23.6212C16.5422 23.479 16.7758 23.3673 16.918 23.3673C17.0602 23.3673 17.2937 23.479 17.4258 23.6212C17.6594 23.8446 17.6797 23.9462 17.6797 24.7688C17.6797 25.8555 17.4969 26.211 16.918 26.211C16.3391 26.211 16.1562 25.8555 16.1562 24.7688Z" fill="#333333"/>
</svg>
