<?xml version="1.0" encoding="UTF-8" standalone="no"?>
<!DOCTYPE svg PUBLIC "-//W3C//DTD SVG 1.1//EN" "http://www.w3.org/Graphics/SVG/1.1/DTD/svg11.dtd">
<svg width="100%" height="100%" viewBox="0 0 300 300" version="1.1" xmlns="http://www.w3.org/2000/svg" xmlns:xlink="http://www.w3.org/1999/xlink" xml:space="preserve" xmlns:serif="http://www.serif.com/" style="fill-rule:evenodd;clip-rule:evenodd;stroke-linejoin:round;stroke-miterlimit:2;">
    <style>
        .logo { fill: black; }
        .bg { fill: white; }
        @media (prefers-color-scheme: dark) {
            .logo { fill: white; }
            .bg { fill: black; }
        }
    </style>
    <path class="bg" d="M300,25L300,275C300,288.798 288.798,300 275,300L25,300C11.202,300 0,288.798 0,275L0,25C0,11.202 11.202,0 25,0L275,0C288.798,0 300,11.202 300,25Z"/>
    <g transform="matrix(1,0,0,1,68.684,40.5)">
        <path class="logo" d="M71.689,218.989C71.398,218.996 71.108,219 70.818,219L69.751,219C67.378,219.011 65.015,218.689 62.731,218.043C60.953,217.609 59.216,217.024 57.537,216.295C46.751,211.61 37.093,199.055 29.889,184.695C27.407,180.403 25.189,176.075 23.234,171.953C2.44,128.006 -9,60.836 8.788,28.944C19.044,10.55 40.8,0 68.48,0C105.231,0 150.136,19.7 160.969,56.209C168.532,81.697 159.897,117.209 145.01,148.131C143.81,150.678 142.543,153.191 141.21,155.67C136.087,165.458 130.199,174.827 123.6,183.687C106.475,206.459 88.325,219 72.5,219C72.228,219 71.958,218.996 71.689,218.989ZM69.905,203.3C70.3,203.373 70.698,203.429 71.099,203.468C79.247,202.691 90.746,195.11 102.147,183.326C112.775,168.477 116.345,149.678 111.9,131.967C106.755,111.4 82.191,100.3 61.689,100.3C49.906,100.3 40.661,103.9 36.326,110.174C34.228,113.441 32.846,117.115 32.272,120.955C40.139,113.636 50.465,109.515 61.21,109.408C73.281,109.408 83.038,115.344 87.31,125.289C94.322,141.609 83.61,173.712 73.177,190.611C70.854,194.554 68.021,198.173 64.752,201.375C66.357,202.284 68.097,202.934 69.905,203.3ZM38.122,138.4C31.711,150.44 46.15,182.231 53.8,190.387C56.393,188.068 61.167,181.887 66.032,170.596C72.832,154.813 75.832,137.948 73.006,131.365C70.706,126.002 65.322,124.877 61.214,124.877C53.312,124.877 42.845,129.52 38.122,138.393L38.122,138.4ZM127,128.231C128.347,133.607 129.118,139.112 129.3,144.651C131.212,140.815 133.027,136.891 134.719,132.926C139.567,120.126 141.234,108.468 138.998,99.915C132.454,74.88 92.347,56.175 60.86,56.175C45.76,56.175 34.022,60.296 27.807,67.775C19.338,77.975 18.733,93.986 20.207,107.335C21.115,105.262 22.217,103.279 23.497,101.413C30.78,90.873 44.697,84.828 61.686,84.828C88.088,84.833 119.949,100.043 127,128.231ZM148.015,82.293C148.617,74.997 147.951,67.652 146.045,60.584C137.665,32.343 100.027,15.467 68.48,15.467C46.626,15.467 29.829,23.112 22.397,36.442C19.255,42.077 17.245,49.257 16.209,57.458C25.492,46.649 41.318,40.704 60.862,40.704C93.349,40.706 132.04,56.931 148.015,82.294L148.015,82.293Z" style="fill-rule:nonzero;"/>
    </g>
</svg>
