<svg width="113" height="14" viewBox="0 0 113 14" fill="none" xmlns="http://www.w3.org/2000/svg">
<path d="M2.2959 2.02246H5.09961C5.62695 2.01074 6.08984 2.13086 6.48828 2.38281C6.75195 2.53516 6.95703 2.74316 7.10352 3.00684C7.24414 3.2998 7.31445 3.66016 7.31445 4.08789C7.31445 4.60352 7.1416 5.07227 6.7959 5.49414C6.43262 5.92773 5.89062 6.15039 5.16992 6.16211H2.2959V2.02246ZM0.353516 13H2.2959V7.99902H5.24902C6.56738 7.97559 7.56934 7.55371 8.25488 6.7334C8.92285 5.9541 9.25684 5.08984 9.25684 4.14062C9.25684 3.4375 9.125 2.82813 8.86133 2.3125C8.60938 1.7793 8.28125 1.36914 7.87695 1.08203C7.39648 0.701172 6.92188 0.449219 6.45312 0.326172C5.98438 0.232422 5.49805 0.185547 4.99414 0.185547H0.353516V13ZM11.0234 13H19.2061V11.1631H12.9658V0.185547H11.0234V13ZM23.3105 8.41211L25.165 2.81348H25.2002L27.0547 8.41211H23.3105ZM28.6016 13H30.6494L25.9912 0.185547H24.3652L19.707 13H21.7637L22.748 10.1348H27.6084L28.6016 13ZM32.9258 13H34.7539V7.72656L38.6123 0.185547H36.5557L33.8398 5.87207L31.124 0.185547H29.0674L32.9258 7.72656V13ZM46.0654 13H47.6826L50.1348 3.7627H50.1699L52.6133 13H54.2393L57.4385 0.185547H55.3906L53.3691 9.29102H53.334L50.8555 0.185547H49.4492L46.9619 9.29102H46.9268L44.9141 0.185547H42.8662L46.0654 13ZM58.9941 13H60.9365V0.185547H58.9941V13ZM65.8057 13H67.7568V1.91699H71.2637V0.185547H62.2988V1.91699H65.8057V13ZM79.6484 13H81.5908V0.185547H79.6484V5.67871H74.5771V0.185547H72.6348V13H74.5771V7.40137H79.6484V13ZM88.3936 8.6582C88.4053 10.0059 88.8506 11.0752 89.7295 11.8662C90.5908 12.6807 91.6631 13.0938 92.9463 13.1055C94.2529 13.0938 95.334 12.6807 96.1895 11.8662C97.0391 11.0752 97.4756 10.0059 97.499 8.6582V0.185547H95.5566V8.44727C95.5449 9.32031 95.2988 9.98535 94.8184 10.4424C94.3262 10.9229 93.7021 11.1631 92.9463 11.1631C92.1904 11.1631 91.5723 10.9229 91.0918 10.4424C90.5996 9.98535 90.3477 9.32031 90.3359 8.44727V0.185547H88.3936V8.6582ZM100.127 9.88867L98.8525 11.3477C100.218 12.5195 101.85 13.1055 103.748 13.1055C106.684 13.0703 108.184 11.8281 108.248 9.37891C108.248 8.4707 107.964 7.67383 107.396 6.98828C106.821 6.29102 105.934 5.86035 104.732 5.69629C104.123 5.62012 103.643 5.55273 103.291 5.49414C102.658 5.37695 102.198 5.16602 101.911 4.86133C101.624 4.5625 101.48 4.22852 101.48 3.85938C101.492 3.24414 101.706 2.78125 102.122 2.4707C102.521 2.17188 103.019 2.02246 103.616 2.02246C104.771 2.0459 105.828 2.37402 106.789 3.00684L107.87 1.40723C106.692 0.557617 105.307 0.115234 103.713 0.0800781C102.389 0.0917969 101.366 0.4375 100.646 1.11719C99.9014 1.80273 99.5293 2.70508 99.5293 3.82422C99.5293 4.75586 99.8252 5.54688 100.417 6.19727C100.991 6.83008 101.829 7.2373 102.931 7.41895C103.546 7.50684 104.111 7.58594 104.627 7.65625C105.752 7.84961 106.309 8.42383 106.297 9.37891C106.273 10.5449 105.43 11.1396 103.766 11.1631C102.359 11.1514 101.146 10.7266 100.127 9.88867ZM110.806 9.83594H111.72L112.423 0.185547H110.12L110.806 9.83594ZM110.357 13H112.194V11.1631H110.357V13Z" fill="#3C7392"/>
</svg>
