<svg width="107" height="26" viewBox="0 0 107 26" fill="none" xmlns="http://www.w3.org/2000/svg">
<path fill-rule="evenodd" clip-rule="evenodd" d="M8.1871 26C8.22065 26 8.25422 25.9996 8.28782 25.9987C8.31878 25.9994 8.34981 25.9998 8.3809 26C10.2111 26 12.3091 24.5107 14.289 21.8076C15.0535 20.7531 15.7341 19.641 16.3249 18.4814C16.4793 18.1871 16.6257 17.8887 16.7642 17.5863C18.4852 13.9154 19.4835 9.69922 18.6091 6.67332C17.3567 2.33876 12.1654 0 7.91676 0C4.71687 0 2.20163 1.25245 1.01594 3.43625C-1.03997 7.2224 0.28212 15.1969 2.68645 20.4142C2.91195 20.9039 3.1688 21.4174 3.45576 21.927C4.28861 23.632 5.40511 25.1226 6.65206 25.6788C6.84577 25.7652 7.04672 25.8347 7.2526 25.8863C7.51626 25.963 7.78969 26.0013 8.06439 26C8.07478 26 8.08517 25.9999 8.09556 25.9998C8.10405 25.9997 8.11254 25.9996 8.12103 25.9994C8.14293 25.9998 8.16495 26 8.1871 26ZM8.21958 24.1557C8.1732 24.1512 8.12719 24.1446 8.08157 24.1358L8.08148 24.1356C7.87172 24.092 7.67044 24.015 7.48547 23.9074C7.86494 23.5255 8.19253 23.0959 8.4599 22.6295C9.6658 20.6232 10.9043 16.812 10.0938 14.8745C9.59981 13.6938 8.4718 12.989 7.07636 12.989C5.82611 13.005 4.62929 13.4956 3.73092 14.3603C3.79662 13.906 3.95619 13.4702 4.19959 13.0803C4.70083 12.3352 5.76956 11.908 7.13177 11.908C9.50183 11.908 12.3418 13.2255 12.9365 15.6671C13.1911 16.7051 13.2223 17.7848 13.028 18.8356C12.8336 19.8864 12.4182 20.8845 11.8089 21.7645C10.4909 23.1635 9.16154 24.0635 8.21958 24.1557ZM6.21964 22.6029C5.33525 21.6345 3.66607 17.8603 4.40726 16.4301H4.40717C4.95314 15.3766 6.16319 14.8255 7.07683 14.8254C7.55164 14.8254 8.17361 14.959 8.43999 15.5957C8.7665 16.3769 8.42035 18.3794 7.63376 20.2532C7.07127 21.5932 6.51943 22.3276 6.21964 22.6029ZM14.9482 17.1732C14.9272 16.516 14.838 15.8628 14.6821 15.2238C13.8665 11.8772 10.1835 10.071 7.13168 10.071C5.1678 10.071 3.55865 10.789 2.71637 12.0406C2.56802 12.2628 2.4407 12.4981 2.33605 12.7436C2.16558 11.1588 2.23552 9.25781 3.21458 8.04703C3.93312 7.15848 5.29013 6.66929 7.03577 6.66929C10.6762 6.66929 15.3128 8.88998 16.0693 11.8621C16.3278 12.8775 16.1351 14.2606 15.5746 15.7811C15.379 16.2518 15.1692 16.7178 14.9482 17.1732ZM16.8839 7.19283C17.1021 7.94698 17.1682 8.82277 17.1115 9.77009V9.7699C15.2647 6.75892 10.7917 4.83258 7.03606 4.83258C4.77634 4.83258 2.94697 5.53839 1.87342 6.82181C1.99321 5.84812 2.22561 4.9957 2.58884 4.32677C3.44802 2.74413 5.38991 1.83653 7.91638 1.83653C11.5639 1.83653 15.915 3.84002 16.8839 7.19283ZM23.746 15.0464C23.746 17.0813 24.2466 18.6031 25.2341 19.5698C26.2201 20.5349 27.562 21.0242 29.2225 21.0239C30.8682 21.0239 32.2062 20.5348 33.1991 19.5704C34.1943 18.6036 34.699 17.0817 34.699 15.0464V11.2343C34.699 9.19941 34.1983 7.67759 33.2108 6.71085C32.2249 5.74542 30.8902 5.25604 29.2439 5.25604C27.5841 5.25604 26.2387 5.74504 25.2458 6.71C24.2506 7.67674 23.746 9.19856 23.746 11.234V15.0464ZM26.0236 11.2978C26.0236 9.88889 26.2961 8.86809 26.8337 8.26354H26.8338C27.3674 7.66341 28.1558 7.3717 29.2439 7.3717C31.3819 7.3717 32.4213 8.65597 32.4213 11.2978V15.1316C32.4213 17.6939 31.4117 18.8873 29.2439 18.8873C28.1671 18.8873 27.3805 18.6041 26.8393 18.0216C26.298 17.4391 26.0236 16.4669 26.0236 15.1316V11.2978ZM95.424 16.3777C95.5606 17.8715 96.0918 19.026 97.0027 19.809C97.908 20.5871 99.1613 20.9816 100.728 20.9811C102.376 20.9811 103.698 20.5851 104.659 19.804C105.642 19.0054 106.14 17.8704 106.14 16.4302C106.14 15.1723 105.772 14.1768 105.047 13.4716C104.341 12.7842 103.318 12.322 102.01 12.0977L100.297 11.7996C99.4852 11.6565 98.8795 11.4038 98.4973 11.0487C98.1339 10.7111 97.9572 10.2421 97.9572 9.61482C97.9572 8.89399 98.1927 8.34529 98.6773 7.93664C99.1724 7.51953 99.8911 7.30779 100.813 7.30779C102.593 7.30779 103.495 8.07846 103.649 9.73318L103.68 10.0553H105.947L105.902 9.66034C105.735 8.19381 105.19 7.07924 104.284 6.34715C103.387 5.62312 102.227 5.25604 100.835 5.25604C99.3274 5.25604 98.09 5.64931 97.1571 6.42533C96.205 7.21674 95.7223 8.32596 95.7223 9.7221C95.7223 10.9385 96.0834 11.9022 96.7952 12.5864C97.4878 13.2521 98.4812 13.6962 99.7479 13.906L101.419 14.1825C102.274 14.3266 102.912 14.584 103.316 14.9476C103.698 15.292 103.884 15.8052 103.884 16.5162C103.884 17.3057 103.643 17.8844 103.148 18.2856C102.638 18.6991 101.86 18.9087 100.835 18.9087C98.863 18.9087 97.8596 18.0828 97.6774 16.3096L97.6447 15.9905H95.3886L95.424 16.3777ZM47.2276 16.3778C47.3644 17.8715 47.8956 19.026 48.8066 19.809H48.8065C49.7119 20.5871 50.9656 20.9816 52.5317 20.9811C54.1797 20.9811 55.5026 20.5851 56.4634 19.804C57.4459 19.0054 57.944 17.8704 57.944 16.4302C57.944 15.1723 57.5763 14.1768 56.8513 13.4716C56.1448 12.7842 55.1226 12.322 53.8142 12.0977L52.1015 11.7996C51.2894 11.6565 50.6837 11.4038 50.3015 11.0487C49.9381 10.7111 49.7614 10.2421 49.7614 9.61482C49.7614 8.89399 49.9969 8.34529 50.4815 7.93664C50.9766 7.51953 51.6953 7.30779 52.6175 7.30779C54.3974 7.30779 55.2983 8.07846 55.4533 9.73318L55.4834 10.0553H57.7508L57.7058 9.66034C57.5386 8.19381 56.9935 7.07924 56.0874 6.34715C55.1907 5.62312 54.0303 5.25604 52.6386 5.25604C51.1313 5.25604 49.8939 5.64931 48.961 6.42533C48.0089 7.21674 47.5262 8.32596 47.5262 9.7221C47.5262 10.9385 47.8873 11.9022 48.5991 12.5864C49.2917 13.2521 50.2851 13.6962 51.5518 13.906L53.2222 14.1826C54.0775 14.3267 54.716 14.5841 55.1195 14.9477C55.5018 15.2921 55.6877 15.8053 55.6877 16.5163C55.6877 17.3058 55.4467 17.8845 54.9514 18.2857C54.4412 18.6992 53.6631 18.9088 52.6387 18.9088C50.6666 18.9088 49.6631 18.0829 49.481 16.3097L49.4482 15.9906H47.1922L47.2276 16.3778ZM88.6574 14.4003L91.9989 20.8539H94.6067L91.0473 14.123C91.8648 13.8846 92.5921 13.4089 93.136 12.757C93.7436 12.0137 94.0516 11.0642 94.0516 9.93469C94.0516 8.51621 93.6124 7.39958 92.7461 6.61577C91.8893 5.84069 90.7095 5.4477 89.2391 5.4477H83.3985V20.8538H85.6762V14.4003H88.6574ZM89.1105 12.3485H85.6762V7.56336H89.1103C89.9868 7.56336 90.66 7.766 91.1114 8.16574C91.5566 8.56023 91.7737 9.14591 91.7737 9.956C91.7737 10.7386 91.5528 11.3179 91.0985 11.7269C90.6404 12.1393 89.9714 12.3485 89.1105 12.3485ZM71.6172 5.4477V20.8539H81.3064V18.7382H73.8949V14.0809H80.2353V11.9654H73.8949V7.56346H81.3064V5.4477H71.6172ZM63.406 7.56346V20.8539L65.6628 20.8538V7.56346H69.8823V5.4477H59.1865V7.56346H63.406ZM39.8363 14.4083V20.8539H42.114V14.4294L46.7545 5.4477H44.2559L40.9654 12.0511L37.695 5.4477H35.1953L39.8363 14.4083Z" fill="#333333"/>
</svg>
