<svg width="40" height="40" viewBox="0 0 40 40" fill="none" xmlns="http://www.w3.org/2000/svg">
<g filter="url(#filter0_d_1180_12636)">
<circle cx="20" cy="20" r="16" fill="white" fill-opacity="0.7" shape-rendering="crispEdges"/>
</g>
<path d="M11.4097 26.4395V26.138H11.4371V25.6996H11.4645V25.2612H11.4919V24.8228H11.5193V24.3844H11.5467V23.9185H11.5741V23.4801H11.6015V23.0417H11.6289V22.8225H11.6563V22.7951H11.7111V22.7677H11.7659V22.7403H11.7933V22.7129H11.8481V22.6855H11.9029V22.6581H11.9303V22.6307H11.9851V22.6033H12.0125V22.5759H12.0399V22.5485H12.0673V22.5211H12.1221V22.4937H12.1495V22.4663H12.1769V22.4389H12.2043V22.4115H12.2591V22.3841H12.2865V22.3567H12.3139V22.3293H12.3414V22.3019H12.3688V22.2745H12.3962V22.2471H12.4236V22.2197H12.451V22.1923H12.4784V22.1375H12.5058V22.1101H12.5332V22.0827H12.5606V22.0553H12.588V22.0279H12.6154V22.0005H12.6428V21.9457H12.6702V21.9183H12.6976V21.8635H12.725V21.8361H12.7524V21.8087H12.7798V21.7539H12.8072V21.7265H12.8346V21.6716H12.862V21.6168H12.8894V21.562H12.9168V21.5072H12.9442V21.4524H12.9716V21.3976H12.999V21.3428H13.0264V21.2606H13.0538V21.1784H13.0812V21.1236H13.1086V21.0414H13.136V20.9592H13.1634V20.8222H13.1908V20.7126H13.2182V20.5756H13.2456V20.3016H13.273V19.9728H13.2456V19.6988H13.2182V19.5618H13.1908V19.4522H13.1634V19.3426H13.136V19.2329H13.1086V19.1507H13.0812V19.0959H13.0538V19.0137H13.0264V18.9589H12.999V18.8767H12.9716V18.8219H12.9442V18.7671H12.9168V18.7123H12.8894V18.6575H12.862V18.6301H12.8346V18.5753H12.8072V18.5205H12.7798V18.4657H12.7524V18.4383H12.725V18.4109H12.6976V18.3561H12.6702V18.3287H12.6428V18.3013H12.6154V18.2465H12.588V18.2191H12.5606V18.1917H12.5332V18.1643H12.5058V18.1095H12.4784V18.0821H12.451V18.0547H12.4236V18.0273H12.3962V17.9999H12.3688V17.9725H12.3414V17.9451H12.2865V17.9177H12.2591V17.8903H12.2317V17.8629H12.2043V17.8355H12.1769V17.8081H12.1495V17.7807H12.1221V17.7533H12.0673V17.7259H12.0399V17.6985H12.0125V17.6711H11.9577V17.6437H11.9303V17.6163H11.8755V17.5889H11.8481V17.5615H11.7933V17.5341H11.7659V17.5067H11.7111V17.4793H11.6563V17.4519H11.6015V17.4245H11.5467V17.3971H11.4919V17.3697H11.4371V17.3423H11.4097V16.9861H11.3823V16.301H11.3549V15.616H11.3275V14.931H11.3001V14.2459H11.2727V13.5609H11.3823V13.5883H11.4919V13.6157H11.5741V13.6431H11.6837V13.6705H11.7933V13.6979H11.8755V13.7253H11.9851V13.7527H12.0947V13.7801H12.2043V13.8075H12.2865V13.8349H12.3962V13.8623H12.5058V13.8897H12.6154V13.9171H12.725V13.9445H12.862V13.9719H12.9716V13.9993H13.0812V14.0267H13.1908V14.0541H13.3004V14.0815H13.41V14.1089H13.547V14.1363H13.6566V14.1637H13.7936V14.1911H13.9306V14.2185H14.0676V14.2459H14.2046V14.2733H14.3142V14.3007H14.4512V14.3281H14.5882V14.3555H14.7527V14.3829H14.9171V14.4103H15.0815V14.4377H15.2185V14.4651H15.3829V14.4925H15.5473V14.5199H15.7391V14.5473H15.9309V14.5747H16.1227V14.6021H16.3145V14.6295H16.5063V14.657H16.7255V14.6844H16.9995V14.7118H17.2736V14.7392H17.5476V14.7666H17.849V14.794H18.26V14.8214H18.6984V14.8488H19.5479V14.8762H20.6713V14.8488H21.4111V14.8214H21.9592V14.794H22.288V14.7666H22.6168V14.7392H22.9182V14.7118H23.1922V14.6844H23.4114V14.657H23.6032V14.6295H23.8224V14.6021H24.0417V14.5747H24.2335V14.5473H24.3979V14.5199H24.5623V14.4925H24.7267V14.4651H24.8911V14.4377H25.0555V14.4103H25.2199V14.3829H25.3843V14.3555H25.4939V14.3281H25.6309V14.3007H25.7679V14.2733H25.9049V14.2459H26.0419V14.2185H26.1515V14.1911H26.2885V14.1637H26.4256V14.1363H26.5352V14.1089H26.6448V14.0815H26.7544V14.0541H26.864V14.0267H26.9736V13.9993H27.0832V13.9719H27.2202V13.9445H27.3298V13.9171H27.4394V13.8897H27.549V13.8623H27.6312V13.8349H27.7408V13.8075H27.8504V13.7801H27.9326V13.7527H28.0422V13.7253H28.1244V13.6979H28.234V13.6705H28.3162V13.6431H28.4258V13.6157H28.508V13.5883H28.6176V13.5609H28.7273V14.1089H28.6999V14.794H28.6724V15.479H28.645V16.164H28.6176V16.849H28.5902V17.3423H28.5628V17.3697H28.508V17.3971H28.4532V17.4245H28.3984V17.4519H28.3436V17.4793H28.2888V17.5067H28.234V17.5341H28.1792V17.5615H28.1518V17.5889H28.1244V17.6163H28.0696V17.6437H28.0422V17.6711H27.9874V17.6985H27.96V17.7259H27.9052V17.7533H27.8778V17.7807H27.8504V17.8081H27.823V17.8355H27.7682V17.8629H27.7408V17.8903H27.7134V17.9177H27.686V17.9451H27.6586V17.9725H27.6312V17.9999H27.6038V18.0273H27.5764V18.0547H27.549V18.0821H27.5216V18.1095H27.4942V18.1369H27.4668V18.1917H27.4394V18.2191H27.412V18.2465H27.3846V18.3013H27.3572V18.3287H27.3298V18.3561H27.3024V18.3835H27.275V18.4383H27.2476V18.4657H27.2202V18.5205H27.1928V18.5753H27.1654V18.6027H27.138V18.6575H27.1106V18.7123H27.0832V18.7671H27.0558V18.7945H27.0284V18.8767H27.001V18.9315H26.9736V19.0137H26.9462V19.0685H26.9188V19.1507H26.8914V19.2055H26.864V19.3151H26.8366V19.4248H26.8092V19.5618H26.7818V19.6714H26.7544V19.9454H26.727V20.329H26.7544V20.603H26.7818V20.7126H26.8092V20.8496H26.8366V20.9866H26.864V21.0414H26.8914V21.1236H26.9188V21.2058H26.9462V21.288H26.9736V21.3428H27.001V21.3976H27.0284V21.4524H27.0558V21.5072H27.0832V21.562H27.1106V21.6168H27.138V21.6716H27.1654V21.7265H27.1928V21.7539H27.2202V21.8087H27.2476V21.8361H27.275V21.8909H27.3024V21.9183H27.3298V21.9457H27.3572V22.0005H27.3846V22.0279H27.412V22.0827H27.4394V22.1101H27.4668V22.1375H27.4942V22.1649H27.5216V22.1923H27.549V22.2197H27.5764V22.2471H27.6038V22.2745H27.6312V22.3019H27.6586V22.3293H27.686V22.3567H27.7134V22.3841H27.7408V22.4115H27.7682V22.4389H27.823V22.4663H27.8504V22.4937H27.8778V22.5211H27.9052V22.5485H27.96V22.5759H27.9874V22.6033H28.0148V22.6307H28.0696V22.6581H28.097V22.6855H28.1518V22.7129H28.1792V22.7403H28.234V22.7677H28.2888V22.7951H28.3436V22.8225H28.371V23.1513H28.3984V23.5897H28.4258V24.0282H28.4532V24.4666H28.4806V24.905H28.508V25.3434H28.5354V25.7818H28.5628V26.2202H28.5902V26.4395H28.4258V26.4121H28.2888V26.3847H28.1518V26.3572H27.9874V26.3298H27.823V26.3024H27.6586V26.275H27.4942V26.2476H27.3298V26.2202H27.138V26.1928H26.9736V26.1654H26.8092V26.138H26.6448V26.1106H26.453V26.0832H26.2337V26.0558H25.9871V26.0284H25.7405V26.001H25.4939V25.9736H25.2747V25.9462H25.0281V25.9188H24.7815V25.8914H24.5623V25.864H24.2609V25.8366H23.8224V25.8092H23.384V25.7818H22.9456V25.7544H22.5072V25.727H21.3837V25.6996H19.6575V25.727H18.7532V25.7544H17.986V25.7818H17.575V25.8092H17.1914V25.8366H16.8077V25.864H16.4241V25.8914H16.0131V25.9188H15.7391V25.9462H15.4651V25.9736H15.2185V26.001H14.9445V26.0284H14.6979V26.0558H14.4238V26.0832H14.1772V26.1106H13.9032V26.138H13.6566V26.1654H13.4374V26.1928H13.2456V26.2202H13.0264V26.2476H12.8346V26.275H12.6154V26.3024H12.3962V26.3298H12.2043V26.3572H11.9851V26.3847H11.7933V26.4121H11.6289V26.4395" fill="url(#paint0_linear_1180_12636)"/>
<path d="M21.2142 21.4583C21.1446 21.6574 21.0473 21.819 20.9188 21.94C20.7946 22.0631 20.6523 22.1508 20.4971 22.2033C20.3408 22.2557 20.1835 22.2771 20.0261 22.2654C19.8656 22.2536 19.7211 22.2129 19.5873 22.1412C19.4546 22.0706 19.3454 21.9753 19.264 21.8522C19.1827 21.7313 19.1409 21.5846 19.1377 21.4155V19.096C19.1409 18.9323 19.1827 18.7899 19.2662 18.6711C19.3497 18.5555 19.4588 18.4602 19.5937 18.3939C19.7307 18.3254 19.8763 18.2868 20.0347 18.2729C20.1931 18.2611 20.3504 18.2804 20.5035 18.3275C20.6555 18.3746 20.7925 18.456 20.9102 18.5673C21.028 18.6807 21.1168 18.8285 21.1725 19.0104L22.8305 18.4838C22.7331 18.1092 22.5864 17.7913 22.3895 17.5355C22.1947 17.2786 21.9667 17.0752 21.7109 16.9211C21.454 16.7691 21.1864 16.6578 20.9081 16.5914C20.6298 16.5218 20.3601 16.4886 20.1 16.4918C19.8121 16.4918 19.5263 16.5272 19.2469 16.5957C18.9686 16.6642 18.7064 16.7691 18.4602 16.9093C18.214 17.0485 17.9967 17.2218 17.8084 17.4338C17.62 17.6425 17.4733 17.8865 17.3674 18.1659C17.2582 18.4463 17.2047 18.7589 17.2025 19.1099V21.4305C17.2047 21.7816 17.2582 22.0941 17.3674 22.3746C17.4733 22.6518 17.62 22.8958 17.8084 23.1024C17.9967 23.3111 18.214 23.4845 18.4602 23.6215C18.7064 23.7596 18.9686 23.8634 19.2469 23.933C19.5263 24.0015 19.8121 24.0347 20.1 24.0347C20.3601 24.0347 20.6298 24.0015 20.9038 23.9298C21.18 23.8613 21.4465 23.7478 21.7044 23.5915C21.9645 23.4342 22.199 23.2276 22.4077 22.9718C22.6164 22.716 22.7866 22.4002 22.914 22.0277L21.2142 21.4583Z" fill="white"/>
<defs>
<filter id="filter0_d_1180_12636" x="0" y="0" width="40" height="40" filterUnits="userSpaceOnUse" color-interpolation-filters="sRGB">
<feFlood flood-opacity="0" result="BackgroundImageFix"/>
<feColorMatrix in="SourceAlpha" type="matrix" values="0 0 0 0 0 0 0 0 0 0 0 0 0 0 0 0 0 0 127 0" result="hardAlpha"/>
<feOffset/>
<feGaussianBlur stdDeviation="2"/>
<feComposite in2="hardAlpha" operator="out"/>
<feColorMatrix type="matrix" values="0 0 0 0 0 0 0 0 0 0 0 0 0 0 0 0 0 0 0.15 0"/>
<feBlend mode="normal" in2="BackgroundImageFix" result="effect1_dropShadow_1180_12636"/>
<feBlend mode="normal" in="SourceGraphic" in2="effect1_dropShadow_1180_12636" result="shape"/>
</filter>
<linearGradient id="paint0_linear_1180_12636" x1="19.9959" y1="27.6364" x2="19.9959" y2="15.8255" gradientUnits="userSpaceOnUse">
<stop stop-color="#972A29"/>
<stop offset="0.01" stop-color="#972A29"/>
<stop offset="0.99" stop-color="#C83026"/>
<stop offset="1" stop-color="#C83026"/>
</linearGradient>
</defs>
</svg>
