<svg width="40" height="40" viewBox="0 0 40 40" fill="none" xmlns="http://www.w3.org/2000/svg">
<g filter="url(#filter0_d_1180_12633)">
<circle cx="20" cy="20" r="16" fill="white" fill-opacity="0.7" shape-rendering="crispEdges"/>
</g>
<path fill-rule="evenodd" clip-rule="evenodd" d="M19.9992 11.4885C15.1805 11.4885 11.2727 15.3958 11.2727 20.216C11.2727 24.0714 13.7731 27.3427 17.2411 28.4973C17.6777 28.5771 17.8368 28.3076 17.8368 28.0762C17.8368 27.8688 17.8293 27.3202 17.8251 26.5921C15.3975 27.1193 14.8853 25.422 14.8853 25.422C14.4883 24.4137 13.9162 24.1453 13.9162 24.1453C13.1238 23.6042 13.9762 23.6149 13.9762 23.6149C14.8521 23.6765 15.3129 24.5144 15.3129 24.5144C16.0913 25.8479 17.3557 25.4627 17.8529 25.2393C17.9322 24.6757 18.1578 24.291 18.4069 24.073C16.469 23.8522 14.4316 23.1038 14.4316 19.7596C14.4316 18.8064 14.7718 18.028 15.33 17.4178C15.24 17.197 14.9405 16.3098 15.4157 15.1081C15.4157 15.1081 16.1481 14.8734 17.8154 16.0023C18.5114 15.8088 19.2582 15.7124 20.0002 15.7087C20.7417 15.7124 21.4881 15.8088 22.1851 16.0023C23.8513 14.8734 24.5826 15.1081 24.5826 15.1081C25.0589 16.3098 24.7594 17.197 24.6699 17.4178C25.2293 18.028 25.5668 18.8064 25.5668 19.7596C25.5668 23.1124 23.5261 23.8501 21.5823 24.066C21.8952 24.3355 22.1744 24.868 22.1744 25.6824C22.1744 26.8487 22.1636 27.7901 22.1636 28.0762C22.1636 28.3098 22.3212 28.5814 22.7637 28.4962C26.229 27.3395 28.7273 24.0708 28.7273 20.216C28.7273 15.3958 24.8194 11.4885 19.9992 11.4885Z" fill="#1B1817"/>
<defs>
<filter id="filter0_d_1180_12633" x="0" y="0" width="40" height="40" filterUnits="userSpaceOnUse" color-interpolation-filters="sRGB">
<feFlood flood-opacity="0" result="BackgroundImageFix"/>
<feColorMatrix in="SourceAlpha" type="matrix" values="0 0 0 0 0 0 0 0 0 0 0 0 0 0 0 0 0 0 127 0" result="hardAlpha"/>
<feOffset/>
<feGaussianBlur stdDeviation="2"/>
<feComposite in2="hardAlpha" operator="out"/>
<feColorMatrix type="matrix" values="0 0 0 0 0 0 0 0 0 0 0 0 0 0 0 0 0 0 0.15 0"/>
<feBlend mode="normal" in2="BackgroundImageFix" result="effect1_dropShadow_1180_12633"/>
<feBlend mode="normal" in="SourceGraphic" in2="effect1_dropShadow_1180_12633" result="shape"/>
</filter>
</defs>
</svg>
